<svg width="114" height="90" xmlns="http://www.w3.org/2000/svg" xmlns:svg="http://www.w3.org/2000/svg">
 <g class="layer">
  <title>Layer 1</title>
  <path d="m2.83,3.33l1.36,0.47c6.88,2.29 10.33,3.44 12.31,6.15c1.98,2.76 1.98,6.36 1.98,13.61l0,13.67c0,14.76 0,22.11 4.59,26.7c4.59,4.59 11.94,4.59 26.7,4.59l41.73,0" fill="none" id="svg_1" stroke="#E5017F" stroke-linecap="round" stroke-width="8"/>
  <path d="m20.17,15.67l66.58,0c11.98,0 17.91,0 20.53,3.9c2.56,3.95 0.23,9.42 -4.48,20.41l-2.5,5.81c-2.21,5.12 -3.31,7.68 -5.47,9.13c-2.21,1.45 -5,1.45 -10.58,1.45l-64.08,0" id="svg_2" fill="none" stroke="#E5017F" stroke-width="8"/>
  <path d="m30.75,71.75c4.57,0 8.25,3.68 8.25,8.25c0,4.57 -3.68,8.25 -8.25,8.25c-4.57,0 -8.25,-3.68 -8.25,-8.25c0,-4.57 3.68,-8.25 8.25,-8.25z" fill="none" id="svg_3" stroke="#E5017F" stroke-width="5"/>
  <path d="m85.5,72c4.57,0 8.25,3.69 8.25,8.25c0,4.57 -3.69,8.25 -8.25,8.25c-4.57,0 -8.25,-3.69 -8.25,-8.25c0,-4.57 3.69,-8.25 8.25,-8.25z" fill="none" id="svg_4" stroke="#E5017F" stroke-width="5"/>
 </g>
</svg>