<svg width="45" height="45" viewBox="0 0 45 45" fill="none" xmlns="http://www.w3.org/2000/svg">
<path d="M6.42857 0C2.88281 0 0 2.88281 0 6.42857V38.5714C0 42.1172 2.88281 45 6.42857 45H38.5714C42.1172 45 45 42.1172 45 38.5714V6.42857C45 2.88281 42.1172 0 38.5714 0H6.42857ZM15.2679 9.71317C16.2522 9.44196 17.2868 9.95424 17.6786 10.8984L19.7176 15.7902C20.0591 16.6239 19.8281 17.5781 19.125 18.1507L16.9051 19.9587C18.5324 23.5547 21.375 26.4877 24.9007 28.2355L26.8393 25.865C27.4118 25.1719 28.3661 24.9308 29.1998 25.2723L34.0915 27.3114C35.0357 27.7031 35.5379 28.7377 35.2768 29.7221L35.1964 30.0033C34.3125 33.2478 31.1685 36.0201 27.3415 35.2065C18.5525 33.3482 11.6417 26.4275 9.77344 17.6384C8.95982 13.8114 11.7321 10.6674 14.9766 9.78348L15.2578 9.70313L15.2679 9.71317Z" fill="#D50B7A"/>
</svg>
