<svg width="800px" height="800px" viewBox="0 0 24 24" fill="none" xmlns="http://www.w3.org/2000/svg">
<path d="M21 5L19 12H7.37671M20 16H8L6 3H3M11.5 7L13.5 9M13.5 9L15.5 7M13.5 9V3M9 20C9 20.5523 8.55228 21 8 21C7.44772 21 7 20.5523 7 20C7 19.4477 7.44772 19 8 19C8.55228 19 9 19.4477 9 20ZM20 20C20 20.5523 19.5523 21 19 21C18.4477 21 18 20.5523 18 20C18 19.4477 18.4477 19 19 19C19.5523 19 20 19.4477 20 20Z" stroke="#ec005c" stroke-width="2" stroke-linecap="round" stroke-linejoin="round"/>
<line fill="none" id="svg_2" x1="2.13" x2="21.74" y1="20.49" y2="2.33" stroke="#ec005c" stroke-width="3" stroke-linecap="round"/>
</svg>